<svg width="577" height="1466" viewBox="0 0 577 1466" fill="none" xmlns="http://www.w3.org/2000/svg">
<g filter="url(#filter0_f_1_1619)">
<ellipse cx="347" cy="533" rx="347" ry="533" transform="matrix(-1 0 0 1 1257 200)" fill="#5F10DB"/>
<path d="M200 733C200 773 910 952 910 1266C1101.64 1266 1257 1027.37 1257 733C1257 438.632 1101.64 200 910 200C910 441.5 200 693 200 733Z" fill="#9934B8"/>
<path d="M503 733C503 761.518 1009.47 889.135 1009.47 1113C1146.18 1113 1257 942.868 1257 733C1257 523.132 1146.18 353 1009.47 353C1009.47 525.176 503 704.482 503 733Z" fill="#EEB9FF"/>
</g>
<defs>
<filter id="filter0_f_1_1619" x="0" y="0" width="1457" height="1466" filterUnits="userSpaceOnUse" color-interpolation-filters="sRGB">
<feFlood flood-opacity="0" result="BackgroundImageFix"/>
<feBlend mode="normal" in="SourceGraphic" in2="BackgroundImageFix" result="shape"/>
<feGaussianBlur stdDeviation="100" result="effect1_foregroundBlur_1_1619"/>
</filter>
</defs>
</svg>
