<svg width="24" height="24" viewBox="0 0 24 24" fill="none" xmlns="http://www.w3.org/2000/svg">
<path d="M17.4922 11.9089C17.4922 14.9924 14.9924 17.4922 11.9089 17.4922C8.82526 17.4922 6.32552 14.9924 6.32552 11.9089C6.32552 8.82526 8.82526 6.32552 11.9089 6.32552C14.9924 6.32552 17.4922 8.82526 17.4922 11.9089ZM17.4922 11.9089C17.4922 13.9646 18.7421 15.6311 20.2839 15.6311C21.8256 15.6311 23.0755 13.9646 23.0755 11.9089C23.0755 9.05107 21.9853 6.19326 19.8049 4.01283C15.444 -0.348026 8.37368 -0.348026 4.01283 4.01283C-0.348026 8.37368 -0.348026 15.444 4.01283 19.8049C8.37368 24.1657 15.444 24.1657 19.8049 19.8049M17.4922 11.9089V7.25608" stroke="white" stroke-width="1.48565" stroke-linecap="round" stroke-linejoin="round"/>
</svg>
