<svg width="21" height="21" viewBox="0 0 21 21" fill="none" xmlns="http://www.w3.org/2000/svg">
<path d="M17.3278 0.630371H2.93389C1.66196 0.630371 0.630859 1.66147 0.630859 2.9334V17.3273C0.630859 18.5993 1.66196 19.6304 2.93389 19.6304H17.3278C18.5998 19.6304 19.6309 18.5993 19.6309 17.3273V2.9334C19.6309 1.66147 18.5998 0.630371 17.3278 0.630371Z" stroke="white" stroke-width="1.2606"/>
<path d="M5.8125 8.69092V15.0243" stroke="white" stroke-width="1.2606" stroke-linecap="round" stroke-linejoin="round"/>
<path d="M5.81362 6.67559C6.44959 6.67559 6.96514 6.16004 6.96514 5.52407C6.96514 4.88811 6.44959 4.37256 5.81362 4.37256C5.17766 4.37256 4.66211 4.88811 4.66211 5.52407C4.66211 6.16004 5.17766 6.67559 5.81362 6.67559Z" fill="white"/>
<path d="M14.4494 15.0243V11.2818C14.4494 9.85093 13.2894 8.69092 11.8585 8.69092C10.4276 8.69092 9.26758 9.85093 9.26758 11.2818V15.0243" stroke="white" stroke-width="1.2606" stroke-linecap="round"/>
</svg>
